
            <svg id="trend-chart" width="660" height="400" title="Stack Overflow Trends Chart" version="1.1" xmlns="http://www.w3.org/2000/svg"><g></g><g class="chart-area" transform="translate(100, 20)"><g transform="translate(0,300)" fill="none" font-size="10" font-family="sans-serif" text-anchor="middle"><path class="domain" stroke="#000" d="M0.5,6V0.5H410.5V6"></path><g class="tick" opacity="1" transform="translate(39.655915484192185,0)"><line stroke="#000" y2="6" x1="0.5" x2="0.5"></line><text fill="#000" y="9" x="0.5" dy="0.71em" style="font-size: 12px;">2010</text></g><g class="tick" opacity="1" transform="translate(95.53717015185462,0)"><line stroke="#000" y2="6" x1="0.5" x2="0.5"></line><text fill="#000" y="9" x="0.5" dy="0.71em" style="font-size: 12px;">2012</text></g><g class="tick" opacity="1" transform="translate(151.49497448344536,0)"><line stroke="#000" y2="6" x1="0.5" x2="0.5"></line><text fill="#000" y="9" x="0.5" dy="0.71em" style="font-size: 12px;">2014</text></g><g class="tick" opacity="1" transform="translate(207.37622915110782,0)"><line stroke="#000" y2="6" x1="0.5" x2="0.5"></line><text fill="#000" y="9" x="0.5" dy="0.71em" style="font-size: 12px;">2016</text></g><g class="tick" opacity="1" transform="translate(263.33403348269854,0)"><line stroke="#000" y2="6" x1="0.5" x2="0.5"></line><text fill="#000" y="9" x="0.5" dy="0.71em" style="font-size: 12px;">2018</text></g><g class="tick" opacity="1" transform="translate(319.21528815036095,0)"><line stroke="#000" y2="6" x1="0.5" x2="0.5"></line><text fill="#000" y="9" x="0.5" dy="0.71em" style="font-size: 12px;">2020</text></g><g class="tick" opacity="1" transform="translate(375.1730924819517,0)"><line stroke="#000" y2="6" x1="0.5" x2="0.5"></line><text fill="#000" y="9" x="0.5" dy="0.71em" style="font-size: 12px;">2022</text></g></g><g class="grid-lines" transform="translate(0,300)" fill="none" font-size="10" font-family="sans-serif" text-anchor="middle"><path class="domain" stroke="#000" d="M0.5,-300V0.5H410.5V-300"></path><g class="tick" opacity="1" transform="translate(39.655915484192185,0)"><line stroke="#000" y2="-300" x1="0.5" x2="0.5" style="stroke: #ccc; fill: none;"></line></g><g class="tick" opacity="1" transform="translate(95.53717015185462,0)"><line stroke="#000" y2="-300" x1="0.5" x2="0.5" style="stroke: #ccc; fill: none;"></line></g><g class="tick" opacity="1" transform="translate(151.49497448344536,0)"><line stroke="#000" y2="-300" x1="0.5" x2="0.5" style="stroke: #ccc; fill: none;"></line></g><g class="tick" opacity="1" transform="translate(207.37622915110782,0)"><line stroke="#000" y2="-300" x1="0.5" x2="0.5" style="stroke: #ccc; fill: none;"></line></g><g class="tick" opacity="1" transform="translate(263.33403348269854,0)"><line stroke="#000" y2="-300" x1="0.5" x2="0.5" style="stroke: #ccc; fill: none;"></line></g><g class="tick" opacity="1" transform="translate(319.21528815036095,0)"><line stroke="#000" y2="-300" x1="0.5" x2="0.5" style="stroke: #ccc; fill: none;"></line></g><g class="tick" opacity="1" transform="translate(375.1730924819517,0)"><line stroke="#000" y2="-300" x1="0.5" x2="0.5" style="stroke: #ccc; fill: none;"></line></g></g><text x="205" y="360" class="axis-label x-axis-label" style="text-anchor: middle; font-weight: bold;">Year</text><g fill="none" font-size="10" font-family="sans-serif" text-anchor="end"><path class="domain" stroke="#000" d="M-6,300.5H0.5V0.5H-6"></path><g class="tick" opacity="1" transform="translate(0,300)"><line stroke="#000" x2="-6" y1="0.5" y2="0.5"></line><text fill="#000" x="-9" y="0.5" dy="0.32em" style="font-size: 12px;">0.00%</text></g><g class="tick" opacity="1" transform="translate(0,266.6666666666667)"><line stroke="#000" x2="-6" y1="0.5" y2="0.5"></line><text fill="#000" x="-9" y="0.5" dy="0.32em" style="font-size: 12px;">2.00%</text></g><g class="tick" opacity="1" transform="translate(0,233.33333333333331)"><line stroke="#000" x2="-6" y1="0.5" y2="0.5"></line><text fill="#000" x="-9" y="0.5" dy="0.32em" style="font-size: 12px;">4.00%</text></g><g class="tick" opacity="1" transform="translate(0,200)"><line stroke="#000" x2="-6" y1="0.5" y2="0.5"></line><text fill="#000" x="-9" y="0.5" dy="0.32em" style="font-size: 12px;">6.00%</text></g><g class="tick" opacity="1" transform="translate(0,166.66666666666666)"><line stroke="#000" x2="-6" y1="0.5" y2="0.5"></line><text fill="#000" x="-9" y="0.5" dy="0.32em" style="font-size: 12px;">8.00%</text></g><g class="tick" opacity="1" transform="translate(0,133.33333333333331)"><line stroke="#000" x2="-6" y1="0.5" y2="0.5"></line><text fill="#000" x="-9" y="0.5" dy="0.32em" style="font-size: 12px;">10.00%</text></g><g class="tick" opacity="1" transform="translate(0,100)"><line stroke="#000" x2="-6" y1="0.5" y2="0.5"></line><text fill="#000" x="-9" y="0.5" dy="0.32em" style="font-size: 12px;">12.00%</text></g><g class="tick" opacity="1" transform="translate(0,66.66666666666663)"><line stroke="#000" x2="-6" y1="0.5" y2="0.5"></line><text fill="#000" x="-9" y="0.5" dy="0.32em" style="font-size: 12px;">14.00%</text></g><g class="tick" opacity="1" transform="translate(0,33.333333333333314)"><line stroke="#000" x2="-6" y1="0.5" y2="0.5"></line><text fill="#000" x="-9" y="0.5" dy="0.32em" style="font-size: 12px;">16.00%</text></g><g class="tick" opacity="1" transform="translate(0,0)"><line stroke="#000" x2="-6" y1="0.5" y2="0.5"></line><text fill="#000" x="-9" y="0.5" dy="0.32em" style="font-size: 12px;">18.00%</text></g></g><g class="grid-lines" fill="none" font-size="10" font-family="sans-serif" text-anchor="end"><path class="domain" stroke="#000" d="M410,300.5H0.5V0.5H410"></path><g class="tick" opacity="1" transform="translate(0,300)"><line stroke="#000" x2="410" y1="0.5" y2="0.5" style="stroke: #ccc; fill: none;"></line></g><g class="tick" opacity="1" transform="translate(0,266.6666666666667)"><line stroke="#000" x2="410" y1="0.5" y2="0.5" style="stroke: #ccc; fill: none;"></line></g><g class="tick" opacity="1" transform="translate(0,233.33333333333331)"><line stroke="#000" x2="410" y1="0.5" y2="0.5" style="stroke: #ccc; fill: none;"></line></g><g class="tick" opacity="1" transform="translate(0,200)"><line stroke="#000" x2="410" y1="0.5" y2="0.5" style="stroke: #ccc; fill: none;"></line></g><g class="tick" opacity="1" transform="translate(0,166.66666666666666)"><line stroke="#000" x2="410" y1="0.5" y2="0.5" style="stroke: #ccc; fill: none;"></line></g><g class="tick" opacity="1" transform="translate(0,133.33333333333331)"><line stroke="#000" x2="410" y1="0.5" y2="0.5" style="stroke: #ccc; fill: none;"></line></g><g class="tick" opacity="1" transform="translate(0,100)"><line stroke="#000" x2="410" y1="0.5" y2="0.5" style="stroke: #ccc; fill: none;"></line></g><g class="tick" opacity="1" transform="translate(0,66.66666666666663)"><line stroke="#000" x2="410" y1="0.5" y2="0.5" style="stroke: #ccc; fill: none;"></line></g><g class="tick" opacity="1" transform="translate(0,33.333333333333314)"><line stroke="#000" x2="410" y1="0.5" y2="0.5" style="stroke: #ccc; fill: none;"></line></g><g class="tick" opacity="1" transform="translate(0,0)"><line stroke="#000" x2="410" y1="0.5" y2="0.5" style="stroke: #ccc; fill: none;"></line></g></g><g class="lines"><path class="line" d="M2.3730395817774457,208.83149545366666L4.669529499626587,206.36964845109998L7.042569081404033,202.25063257425L9.342248568583521,211.64692374471667L11.715288150360966,209.61354199936667L14.088327732138412,219.1628264209L16.231718322130945,213.55702926524998L18.601568334578044,219.39825811560002L20.898058252427184,220.60066187916667L23.27109783420463,225.44613035595L25.56758775205377,223.71698741981666L27.94062733383122,227.9036929388L30.313666915608668,225.35636972593335L32.6101568334578,221.79890351488334L34.98319641523525,223.54378497674998L37.28287590241474,226.32827620653333L39.655915484192185,225.37871983715002L42.02895506596963,214.62902087931667L44.17234565596216,221.68034765815L46.54219566840926,216.42827403736666L48.83868558625841,221.88712932775002L51.21172516803585,214.82379625273336L53.50821508588499,226.04997429988333L55.88125466766244,230.62262826501666L58.25429424943988,225.17936641251666L60.550784167289024,222.89142670606665L62.923823749066464,218.83445701555L65.22350323624596,224.46189055303333L67.5965428180234,226.82209619828333L69.96958239980084,230.42055469156668L72.11297298979338,230.60890560616667L74.48282300224048,227.01536518628336L76.77931292008962,235.21453601905L79.15235250186707,235.59078736666666L81.4488424197162,235.95506366203335L83.82188200149365,238.2496140601L86.1949215832711,235.32558750165L88.49141150112024,228.29144417696665L90.86445108289769,231.27416922373334L93.16413057007718,229.74986695051666L95.53717015185462,234.5498846522833L97.91020973363206,231.03289886086668L100.1301499875529,234.54969741128332L102.5,231.23238933686667L104.79648991784914,237.8847188191L107.16952949962658,240.53335587023332L109.46601941747572,237.77340022486666L111.83905899925318,238.8834768511L114.2120985810306,237.78832814691668L116.50858849887976,233.87780322518333L118.88162808065721,228.98445274055L121.18130756783668,229.6190008872L123.55434714961414,235.73565898903334L125.92738673139159,233.56490771016666L128.0707773213841,230.67356451168334L130.4406273338312,230.39929341771668L132.73711725168036,231.2612917796L135.1101568334578,234.45436627906668L137.40664675130697,237.54242266955L139.77968633308438,238.48999747571668L142.15272591486183,233.79456252128332L144.449215832711,227.57859539083333L146.8222554144884,222.8348345604L149.1219349016679,229.1080040724167L151.49497448344536,231.8103481972L153.8680140652228,231.63849679718334L156.01140465521533,230.085023208L158.38125466766243,229.93138358290003L160.6777445855116,235.46042049468332L163.050784167289,241.5723734982L165.34727408513817,240.68143798436665L167.72031366691562,239.71394968213332L170.09335324869303,237.59712509713333L172.3898431665422,233.74004109808334L174.76288274831964,234.16085288878332L177.06256223549912,234.41712994761667L179.4356018172766,238.0810586259L181.808641399054,235.5325416661833L183.95203198904653,234.72058714351664L186.32188200149363,236.84510290861667L188.6183719193428,238.39748491801666L190.99141150112024,241.75230926763334L193.2879014189694,242.45735195588333L195.66094100074682,245.70497482333332L198.03398058252426,244.18219837138332L200.33047050037342,236.48691264586665L202.70351008215084,233.27794357026664L205.00318956933035,236.14087568213333L207.37622915110782,243.4405513433L209.74926873288524,241.56131467863332L211.96920898680605,241.50130802976668L214.33905899925315,241.15123798586666L216.6355489171023,245.62062261991667L219.0085884988798,247.87902678318335L221.3050784167289,248.02870451205L223.67811799850637,253.58387303421665L226.05115758028379,249.58443209645L228.34764749813294,242.7111536113L230.72068707991036,241.67516756863333L233.0203665670899,245.85114613865L235.3934061488673,246.21658894883333L237.76644573064476,250.38229561888335L239.90983632063728,248.09986204501666L242.27968633308438,244.68567896209998L244.57617625093354,252.22165686923333L246.94921583271096,255.80604150965002L249.24570575056012,253.02315126995L251.6187453323376,254.60152973106665L253.99178491411502,253.63792716668334L256.28827483196415,248.38830992746665L258.6613144137416,249.87266401235L260.9609939009211,248.41336039518333L263.33403348269854,250.12036651921667L265.707073064476,249.76704674251664L267.8504636544685,249.55990358216667L270.2203136669156,251.71155480915002L272.5168035847648,252.91822533286665L274.8898431665422,255.27435008553334L277.1863330843913,258.6780352256333L279.55937266616877,258.402396022L281.9324122479463,256.26416118944996L284.2289021657954,254.70110309448333L286.6019417475728,251.02588244858333L288.9016212347523,254.55242770576666L291.2746608165297,255.82672941241668L293.6477003983072,257.00384702421667L295.79109098829974,253.60339933828334L298.16094100074685,251.86343273551665L300.45743091859595,253.95973124371665L302.8304705003734,254.75518523496666L305.12696041822255,252.29974958208334L307.5,259.47412559815L309.87303958177745,253.31884821025L312.1695294996266,246.51856081481668L314.54256908140405,246.2211419416L316.84224856858356,246.61269380586666L319.21528815036095,251.45006012698335L321.5883277321384,252.60839754095L323.80826798605926,249.9294887992L326.17811799850637,242.7736930363L328.4746079163555,242.24163153846666L330.8476474981329,244.90957835921665L333.1441374159821,247.63026970411667L335.5171769977595,245.80573650595L337.89021657953697,253.37978696063334L340.18670649738607,248.63347452591665L342.5597460791636,246.13273453095002L344.859425566343,244.0666123795L347.23246514812047,250.58313109135L349.605504729898,247.67071326008335L351.7488953198905,251.36776739808334L354.1187453323376,251.30030653615L356.4152352501867,247.342751049L358.78827483196415,250.09088629811666L361.0847647498133,252.49029043211667L363.45780433159075,255.30852556733333L365.8308439133682,249.46984060108332L368.1273338312173,247.3809180567L370.50037341299475,246.15605860658334L372.80005290017425,246.42483014576666L375.1730924819517,249.18013428253334L377.54613206372915,252.82921583360002L379.68952265372167,252.28492984355L382.05937266616877,248.66193496691668L384.3558625840179,253.58458015976666L386.7289021657954,258.47488218685L389.0253920836445,259.50769753425L391.398431665422,260.5044278095833L393.77147124719943,259.27739948765L396.06796116504853,259.1559145156L398.441000746826,259.75420401946667L400.7406802340055,259.7721767521333L403.11371981578293,262.76019581336664L405.4867593975604,265.46860712016667L407.6301499875529,260.2293500263167L410,260.67634633526666" data-legend="c++" style="stroke: rgb(31, 119, 180); fill: none;"></path><path class="line" d="M2.3730395817774457,235.19055910235L4.669529499626587,241.2924933287L7.042569081404033,240.20508722866666L9.342248568583521,238.81094401971666L11.715288150360966,232.92877674865002L14.088327732138412,239.61213517666667L16.231718322130945,236.98241446436668L18.601568334578044,239.11322248615L20.898058252427184,234.92393621893333L23.27109783420463,237.85189426473335L25.56758775205377,239.70257435641668L27.94062733383122,241.66331694546668L30.313666915608668,240.46889678553333L32.6101568334578,234.36859340068332L34.98319641523525,232.12649869069998L37.28287590241474,229.4053639436833L39.655915484192185,227.21244236873332L42.02895506596963,230.20218849913334L44.17234565596216,233.39771446966665L46.54219566840926,239.29382059445L48.83868558625841,235.11618278736665L51.21172516803585,233.5842773897L53.50821508588499,228.56471732631667L55.88125466766244,234.31712504816667L58.25429424943988,238.29905197921667L60.550784167289024,229.70983588431667L62.923823749066464,237.2329446261L65.22350323624596,240.29857952626668L67.5965428180234,239.2354547364L69.96958239980084,239.14836054951667L72.11297298979338,237.70931234141665L74.48282300224048,241.48600294675L76.77931292008962,241.21659577883332L79.15235250186707,241.36307160003332L81.4488424197162,239.10153960898333L83.82188200149365,240.28087675548335L86.1949215832711,242.34935013785L88.49141150112024,240.29515591616666L90.86445108289769,240.4580902973L93.16413057007718,241.63562178465L95.53717015185462,239.43164243069998L97.91020973363206,239.31435488403332L100.1301499875529,237.0410153560333L102.5,236.1666212198L104.79648991784914,236.61477320266667L107.16952949962658,232.53020070633332L109.46601941747572,232.44711506666667L111.83905899925318,230.55209896208333L114.2120985810306,233.4515177568333L116.50858849887976,231.39276383395L118.88162808065721,227.59043545473332L121.18130756783668,228.80119350315L123.55434714961414,230.12384329511667L125.92738673139159,226.25145556338333L128.0707773213841,226.45907401071668L130.4406273338312,222.4580760516L132.73711725168036,221.42131242741664L135.1101568334578,219.51857532921667L137.40664675130697,218.2822930391667L139.77968633308438,221.78625520636666L142.15272591486183,219.47740868635L144.449215832711,213.7918474242333L146.8222554144884,209.83118097164999L149.1219349016679,214.41446922775L151.49497448344536,212.7286165567L153.8680140652228,211.77489827051664L156.01140465521533,207.8470649290333L158.38125466766243,207.24941350166665L160.6777445855116,212.05826402365L163.050784167289,208.04476416881667L165.34727408513817,206.14295631196666L167.72031366691562,206.45587110465L170.09335324869303,211.38346607096668L172.3898431665422,207.14088714346667L174.76288274831964,203.77820059799998L177.06256223549912,202.47342344095L179.4356018172766,202.20931149291667L181.808641399054,198.41068631086665L183.95203198904653,197.50266031726665L186.32188200149363,198.82481126936668L188.6183719193428,198.68804269421668L190.99141150112024,194.54835925396668L193.2879014189694,194.21738906355L195.66094100074682,196.15660062068332L198.03398058252426,196.43011630126665L200.33047050037342,187.56138216876667L202.70351008215084,184.24669922228333L205.00318956933035,186.5473227466333L207.37622915110782,185.4615495953L209.74926873288524,181.87374888940002L211.96920898680605,182.8275451558L214.33905899925315,183.43040345625L216.6355489171023,183.7403353661333L219.0085884988798,182.26244442985L221.3050784167289,178.12184392064998L223.67811799850637,180.5529943678667L226.05115758028379,179.02814403215L228.34764749813294,170.40642725748333L230.72068707991036,163.86069663211663L233.0203665670899,164.77825002023332L235.3934061488673,164.14617049161666L237.76644573064476,158.16236704225L239.90983632063728,157.08464023143333L242.27968633308438,152.63963332353333L244.57617625093354,154.03968778079997L246.94921583271096,148.89614278078332L249.24570575056012,141.65917434629998L251.6187453323376,143.77194480821666L253.99178491411502,139.6541123491L256.28827483196415,132.5168492622L258.6613144137416,131.04566958006666L260.9609939009211,127.04052789131666L263.33403348269854,129.57529314395L265.707073064476,120.76794246264998L267.8504636544685,125.72493632876663L270.2203136669156,124.1172689764L272.5168035847648,123.47854068621663L274.8898431665422,116.57568628480001L277.1863330843913,110.61206377381666L279.55937266616877,111.12554583523334L281.9324122479463,112.7914162125833L284.2289021657954,109.1486502992667L286.6019417475728,96.85563134614995L288.9016212347523,99.23806601723334L291.2746608165297,108.53722302579999L293.6477003983072,97.93886325746666L295.79109098829974,91.41473942326667L298.16094100074685,81.87050613359997L300.45743091859595,89.11523585443334L302.8304705003734,85.88351824476666L305.12696041822255,79.24507612123332L307.5,77.89699570816663L309.87303958177745,91.72073869185002L312.1695294996266,73.9902930026L314.54256908140405,65.983449858L316.84224856858356,69.74973904631665L319.21528815036095,70.67827358576668L321.5883277321384,67.44645492684995L323.80826798605926,55.33801104424998L326.17811799850637,45.79394475464994L328.4746079163555,34.35304486659999L330.8476474981329,34.36375367973335L333.1441374159821,33.51317667071663L335.5171769977595,38.53425640746667L337.89021657953697,41.37561755719997L340.18670649738607,29.273927863433357L342.5597460791636,23.428143712583335L344.859425566343,20.973952207183345L347.23246514812047,24.57769944913332L349.605504729898,26.01670339571666L351.7488953198905,29.501593163883285L354.1187453323376,19.42054780975002L356.4152352501867,18.21018149089997L358.78827483196415,27.05382140321666L361.0847647498133,20.736271580216624L363.45780433159075,26.585223967433365L365.8308439133682,32.785618987433395L368.1273338312173,20.12810619359999L370.50037341299475,17.090199528533333L372.80005290017425,14.674807698066616L375.1730924819517,22.31125656511665L377.54613206372915,15.266422121066682L379.68952265372167,17.34139922648336L382.05937266616877,7.982769360349948L384.3558625840179,26.419036308866623L386.7289021657954,26.82925623186668L389.0253920836445,20.700534318550012L391.398431665422,33.316209207900044L393.77147124719943,34.13504293925001L396.06796116504853,18.484478222899952L398.441000746826,21.11140407414996L400.7406802340055,29.946576115833352L403.11371981578293,47.11639922861664L405.4867593975604,55.722942917816624L407.6301499875529,62.00030318433332L410,58.093734191933294" data-legend="python" style="stroke: rgb(255, 127, 14); fill: none;"></path><path class="line" d="M2.3730395817774457,299.2745211839833L4.669529499626587,300L7.042569081404033,299.8668264749L9.342248568583521,299.85997927693336L11.715288150360966,299.1483019269833L14.088327732138412,299.13594470046667L16.231718322130945,299.6700649972L18.601568334578044,299.04988123516665L20.898058252427184,299.86919384165L23.27109783420463,299.70178452143335L25.56758775205377,297.3964842122833L27.94062733383122,297.57789390145L30.313666915608668,292.9542948168167L32.6101568334578,296.61406877615L34.98319641523525,295.88380056576665L37.28287590241474,296.4323620439L39.655915484192185,296.4822465720667L42.02895506596963,295.4218639768333L44.17234565596216,295.5255110252833L46.54219566840926,294.62777173403333L48.83868558625841,295.50406251618335L51.21172516803585,294.6915680384167L53.50821508588499,293.56115247081664L55.88125466766244,292.5318386455L58.25429424943988,293.52249833946667L60.550784167289024,294.3662565090833L62.923823749066464,294.16456880505L65.22350323624596,294.6164914008833L67.5965428180234,294.7700063012L69.96958239980084,293.47945826853334L72.11297298979338,292.98273620078334L74.48282300224048,291.6508805163833L76.77931292008962,292.87777866945L79.15235250186707,292.50110875255L81.4488424197162,292.4584465398833L83.82188200149365,290.8436927730833L86.1949215832711,289.95667585665L88.49141150112024,289.76299686616665L90.86445108289769,290.69321710606664L93.16413057007718,290.0978921734667L95.53717015185462,290.06367885811665L97.91020973363206,289.01660073926666L100.1301499875529,288.88296314101666L102.5,289.0927505745833L104.79648991784914,289.11830912966667L107.16952949962658,287.54068804086666L109.46601941747572,286.79648158121665L111.83905899925318,287.10591871515L114.2120985810306,286.5964661335833L116.50858849887976,285.81736527616664L118.88162808065721,284.756477647L121.18130756783668,284.95730054175L123.55434714961414,283.95254980886665L125.92738673139159,281.8424636356L128.0707773213841,282.136746684L130.4406273338312,282.0318941223333L132.73711725168036,282.07429990966665L135.1101568334578,281.18175202768333L137.40664675130697,281.33877864541665L139.77968633308438,281.1170800202L142.15272591486183,282.68364054926667L144.449215832711,280.9954141306L146.8222554144884,279.1903464531333L149.1219349016679,280.6824127818667L151.49497448344536,279.16822127703335L153.8680140652228,276.62633212938334L156.01140465521533,277.38211295363334L158.38125466766243,276.41040535378335L160.6777445855116,275.41485641018335L163.050784167289,275.2034311747833L165.34727408513817,275.0492187589L167.72031366691562,274.62722166021666L170.09335324869303,276.14364801864997L172.3898431665422,273.13864189906667L174.76288274831964,272.7784321424L177.06256223549912,274.54654623523334L179.4356018172766,272.8207585121L181.808641399054,270.41213730205L183.95203198904653,268.4915912762833L186.32188200149363,270.5672178238167L188.6183719193428,269.0405555164L190.99141150112024,269.3527259990833L193.2879014189694,265.80425707365L195.66094100074682,267.6802108142333L198.03398058252426,268.54936050366666L200.33047050037342,266.8423660855167L202.70351008215084,266.66252185446666L205.00318956933035,269.0441969798L207.37622915110782,267.1925507791833L209.74926873288524,268.0018982983167L211.96920898680605,266.3113560992333L214.33905899925315,264.7437212036833L216.6355489171023,266.2769744259L219.0085884988798,264.75994422910003L221.3050784167289,264.3856355713833L223.67811799850637,264.9796154145333L226.05115758028379,267.62572989265L228.34764749813294,263.65081742456664L230.72068707991036,265.8138869197667L233.0203665670899,267.34059743165L235.3934061488673,266.8175307061667L237.76644573064476,264.69195314813334L239.90983632063728,261.578031419L242.27968633308438,259.82879887826664L244.57617625093354,261.09890189201667L246.94921583271096,257.9973213493L249.24570575056012,257.12519667341667L251.6187453323376,256.66078308566665L253.99178491411502,256.17205480363333L256.28827483196415,255.04884059263333L258.6613144137416,255.15342093411667L260.9609939009211,256.98603349366664L263.33403348269854,255.90762237263334L265.707073064476,250.49330630768333L267.8504636544685,250.27115083703333L270.2203136669156,251.00661400345L272.5168035847648,252.43554161136666L274.8898431665422,251.03660840865L277.1863330843913,253.46920663096665L279.55937266616877,256.25851950928336L281.9324122479463,256.0652023294667L284.2289021657954,254.14302742363333L286.6019417475728,252.27902376905L288.9016212347523,256.5723198077333L291.2746608165297,255.38533623975L293.6477003983072,250.97699636541665L295.79109098829974,252.88960548195L298.16094100074685,249.35138482151666L300.45743091859595,252.07164451238333L302.8304705003734,250.92256616246667L305.12696041822255,253.02705811531666L307.5,251.29741995954998L309.87303958177745,251.36607564398332L312.1695294996266,251.50927653435L314.54256908140405,251.27357803511666L316.84224856858356,252.43005168156668L319.21528815036095,252.34679119733335L321.5883277321384,245.7169752118L323.80826798605926,244.72483354821668L326.17811799850637,243.1790959515L328.4746079163555,245.76348327391668L330.8476474981329,246.72369868736666L333.1441374159821,249.88338600755L335.5171769977595,248.96290441278333L337.89021657953697,243.43223767505L340.18670649738607,239.77922615058333L342.5597460791636,240.10728542915L344.859425566343,245.48662424225L347.23246514812047,247.77822720445L349.605504729898,244.65048541205L351.7488953198905,241.43312332538335L354.1187453323376,240.70750519134998L356.4152352501867,241.33411772396667L358.78827483196415,244.07097488613334L361.0847647498133,245.1216036868L363.45780433159075,244.41825264883332L365.8308439133682,245.22856540973333L368.1273338312173,241.00670211353332L370.50037341299475,243.1952762833L372.80005290017425,247.0084702643L375.1730924819517,245.94678183025L377.54613206372915,242.29607695821667L379.68952265372167,239.16701223165L382.05937266616877,238.8212862152L384.3558625840179,242.78404550886665L386.7289021657954,245.71694185248333L389.0253920836445,247.77966791816667L391.398431665422,246.95190567053334L393.77147124719943,246.76064189863334L396.06796116504853,241.99345777396667L398.441000746826,243.50696275465L400.7406802340055,248.56456336196666L403.11371981578293,247.4500320478L405.4867593975604,240.91846065623332L407.6301499875529,241.9045326057L410,243.48399710158333" data-legend="r" style="stroke: rgb(44, 160, 44); fill: none;"></path><path class="line" d="M2.3730395817774457,300L4.669529499626587,300L7.042569081404033,300L9.342248568583521,300L11.715288150360966,300L14.088327732138412,300L16.231718322130945,300L18.601568334578044,300L20.898058252427184,300L23.27109783420463,300L25.56758775205377,300L27.94062733383122,300L30.313666915608668,300L32.6101568334578,300L34.98319641523525,300L37.28287590241474,300L39.655915484192185,300L42.02895506596963,300L44.17234565596216,300L46.54219566840926,300L48.83868558625841,300L51.21172516803585,300L53.50821508588499,300L55.88125466766244,300L58.25429424943988,300L60.550784167289024,300L62.923823749066464,300L65.22350323624596,300L67.5965428180234,300L69.96958239980084,300L72.11297298979338,300L74.48282300224048,300L76.77931292008962,300L79.15235250186707,300L81.4488424197162,300L83.82188200149365,300L86.1949215832711,300L88.49141150112024,300L90.86445108289769,300L93.16413057007718,300L95.53717015185462,300L97.91020973363206,300L100.1301499875529,299.98748081435L102.5,299.96104553776667L104.79648991784914,299.9875495527833L107.16952949962658,300L109.46601941747572,300L111.83905899925318,300L114.2120985810306,299.98731926786667L116.50858849887976,300L118.88162808065721,299.98866652613333L121.18130756783668,299.9876089790333L123.55434714961414,299.9254597536L125.92738673139159,299.9890353041333L128.0707773213841,299.97100121215L130.4406273338312,299.9804162333833L132.73711725168036,299.96975416183335L135.1101568334578,299.93635316356665L137.40664675130697,299.93345463603333L139.77968633308438,299.9605578695L142.15272591486183,299.93920529158333L144.449215832711,299.8907259078L146.8222554144884,299.8857658542833L149.1219349016679,299.81747161685L151.49497448344536,299.75126234361665L153.8680140652228,299.6427410337L156.01140465521533,299.61198764181665L158.38125466766243,299.67152634791665L160.6777445855116,299.63747168941666L163.050784167289,299.56551694175L165.34727408513817,299.4025468574L167.72031366691562,299.53736830418336L170.09335324869303,299.4840229215333L172.3898431665422,299.51443676608335L174.76288274831964,299.41610542318335L177.06256223549912,299.54643824433333L179.4356018172766,299.50472932953335L181.808641399054,299.3920984760667L183.95203198904653,299.36364504121667L186.32188200149363,299.51358082341665L188.6183719193428,299.33109521408335L190.99141150112024,299.34774023265L193.2879014189694,299.4760260440833L195.66094100074682,299.48184706716665L198.03398058252426,299.39554326495L200.33047050037342,299.2341307384L202.70351008215084,299.28407789233336L205.00318956933035,299.40600692538334L207.37622915110782,299.3041406415333L209.74926873288524,299.1614659715833L211.96920898680605,299.27470625605L214.33905899925315,299.19677891255L216.6355489171023,299.10344154173333L219.0085884988798,299.21526545928333L221.3050784167289,299.0585254797333L223.67811799850637,299.1575852505333L226.05115758028379,298.9600992026167L228.34764749813294,299.06870821188335L230.72068707991036,299.09707933983333L233.0203665670899,299.21177688308336L235.3934061488673,299.13329371248335L237.76644573064476,299.2792314877833L239.90983632063728,299.19832449821666L242.27968633308438,299.25556535571667L244.57617625093354,299.1880568576833L246.94921583271096,299.05548282773333L249.24570575056012,299.1571139582L251.6187453323376,299.23133860958336L253.99178491411502,299.02373771365L256.28827483196415,298.97073523155L258.6613144137416,298.96377600026665L260.9609939009211,299.16590207691667L263.33403348269854,299.0127004533333L265.707073064476,299.06466571153334L267.8504636544685,299.23029406665L270.2203136669156,299.00478945078333L272.5168035847648,299.25586259605L274.8898431665422,298.83134443448336L277.1863330843913,299.32380318446667L279.55937266616877,298.3894261024L281.9324122479463,298.29129449656665L284.2289021657954,298.6100756877L286.6019417475728,298.88233341688334L288.9016212347523,299.04119045793334L291.2746608165297,299.01535369175L293.6477003983072,298.8685222901167L295.79109098829974,298.75086075141667L298.16094100074685,298.9092423531333L300.45743091859595,298.46942081543335L302.8304705003734,298.6187639057L305.12696041822255,298.82511698478334L307.5,298.7050466183333L309.87303958177745,298.02250879366665L312.1695294996266,298.30691905746664L314.54256908140405,298.9417194669L316.84224856858356,298.5997606863833L319.21528815036095,298.3329999333333L321.5883277321384,298.8727353019833L323.80826798605926,298.7798214868167L326.17811799850637,298.7469364438833L328.4746079163555,298.4828946370333L330.8476474981329,298.7742430215333L333.1441374159821,298.53851915453333L335.5171769977595,298.4214160466L337.89021657953697,298.70301091851667L340.18670649738607,297.9676825876833L342.5597460791636,297.7045908183667L344.859425566343,297.8134330609L347.23246514812047,297.24324896953334L349.605504729898,297.95238789965L351.7488953198905,298.31405242958334L354.1187453323376,298.1459507564667L356.4152352501867,298.13958633451665L358.78827483196415,298.0804187037833L361.0847647498133,297.34021620243334L363.45780433159075,298.12521883935L365.8308439133682,297.9214942771L368.1273338312173,297.8375719749333L370.50037341299475,297.85695755648334L372.80005290017425,297.99467241328335L375.1730924819517,297.6523049585667L377.54613206372915,298.1438104919L379.68952265372167,298.2111930529333L382.05937266616877,298.31846269473334L384.3558625840179,298.3139436857333L386.7289021657954,298.25690931478334L389.0253920836445,298.0390834401333L391.398431665422,298.4588287098333L393.77147124719943,298.5266594990667L396.06796116504853,298.5399103966167L398.441000746826,298.26663541728334L400.7406802340055,297.5943956371L403.11371981578293,298.3766188329167L405.4867593975604,298.48111467585L407.6301499875529,298.14225289735L410,298.4277374458333" data-legend="julia" style="stroke: rgb(214, 39, 40); fill: none;"></path><path class="line" d="M2.3730395817774457,298.66995550396666L4.669529499626587,297.56352245041666L7.042569081404033,298.5350912238667L9.342248568583521,298.1797306001333L11.715288150360966,297.97721707655L14.088327732138412,297.40783410138334L16.231718322130945,298.1028737338833L18.601568334578044,297.46634996041666L20.898058252427184,297.25307067458334L23.27109783420463,297.43534688425L25.56758775205377,297.96925768558333L27.94062733383122,298.2478381414833L30.313666915608668,297.3961524323L32.6101568334578,296.75321663466667L34.98319641523525,294.87664538505L37.28287590241474,295.4958570804333L39.655915484192185,296.55709238968336L42.02895506596963,295.83464673301665L44.17234565596216,296.07275068405L46.54219566840926,293.82193749413335L48.83868558625841,293.3369559592333L51.21172516803585,295.59641439551666L53.50821508588499,295.82718464846664L55.88125466766244,296.30550321686667L58.25429424943988,295.52613232768334L60.550784167289024,295.73520352556665L62.923823749066464,296.23831708095L65.22350323624596,295.6787083442L67.5965428180234,296.2822936358L69.96958239980084,294.16796267496665L72.11297298979338,292.86633609036664L74.48282300224048,293.3171963797167L76.77931292008962,294.95091351685L79.15235250186707,294.75246887876665L81.4488424197162,295.27196206915L83.82188200149365,296.01560009751665L86.1949215832711,295.63476434293335L88.49141150112024,293.41199314451666L90.86445108289769,293.3808194269167L93.16413057007718,293.7426419597833L95.53717015185462,293.4333877671L97.91020973363206,292.5021075157333L100.1301499875529,292.81398743575L102.5,291.9494111383833L104.79648991784914,293.2892089484L107.16952949962658,293.4182051932167L109.46601941747572,293.4572905152L111.83905899925318,292.9366981197L114.2120985810306,293.01291659376665L116.50858849887976,291.57101503785L118.88162808065721,290.4912154244167L121.18130756783668,291.67323390778336L123.55434714961414,292.31170601328336L125.92738673139159,291.14052573525L128.0707773213841,290.4400662719L130.4406273338312,289.77727382218336L132.73711725168036,289.81723448188336L135.1101568334578,290.52722917741664L137.40664675130697,290.61710367958335L139.77968633308438,291.00719424461664L142.15272591486183,290.99225070116665L144.449215832711,289.9467835171L146.8222554144884,288.6146634757333L149.1219349016679,289.3423705164L151.49497448344536,290.2103965233667L153.8680140652228,289.0142867860667L156.01140465521533,288.5455518425L158.38125466766243,287.8637629595833L160.6777445855116,288.13196793723336L163.050784167289,289.42757891558335L165.34727408513817,289.5398283128333L167.72031366691562,290.5520327008667L170.09335324869303,289.18471574721667L172.3898431665422,288.09398950406666L174.76288274831964,287.6979452951333L177.06256223549912,289.26570511575L179.4356018172766,289.7913596494L181.808641399054,288.1708342800667L183.95203198904653,287.8120348864L186.32188200149363,286.5306108009833L188.6183719193428,287.43543712928334L190.99141150112024,289.11709045681664L193.2879014189694,290.3709048429L195.66094100074682,290.58997263043335L198.03398058252426,291.17870952265L200.33047050037342,290.4761904762L202.70351008215084,289.4778290227333L205.00318956933035,291.50882031028334L207.37622915110782,291.38062207971666L209.74926873288524,290.48174671991666L211.96920898680605,289.71250022926665L214.33905899925315,290.5066103386667L216.6355489171023,289.97807426345L219.0085884988798,291.0211768828167L221.3050784167289,291.5457490048L223.67811799850637,291.35367718668334L226.05115758028379,291.7200351604333L228.34764749813294,291.45515782036665L230.72068707991036,292.5557073230833L233.0203665670899,292.44965224841667L235.3934061488673,292.51394349456666L237.76644573064476,291.88895167585L239.90983632063728,291.03125532363333L242.27968633308438,291.1044771618833L244.57617625093354,291.0686254344L246.94921583271096,292.48164330876665L249.24570575056012,293.17262306136666L251.6187453323376,293.2054128945333L253.99178491411502,294.00741128476665L256.28827483196415,293.14153380245L258.6613144137416,292.557121848L260.9609939009211,294.25399208535L263.33403348269854,293.97117085325L265.707073064476,294.13490381463333L267.8504636544685,294.53411356183335L270.2203136669156,293.74883373765L272.5168035847648,294.7206467962L274.8898431665422,295.01956132821664L277.1863330843913,295.13983538835L279.55937266616877,295.7122469745833L281.9324122479463,294.99091811321665L284.2289021657954,294.58771896573336L286.6019417475728,294.41166708438334L288.9016212347523,294.65623481885L291.2746608165297,295.42761944213333L293.6477003983072,295.92437110621665L295.79109098829974,295.27636418603333L298.16094100074685,294.6453715517333L300.45743091859595,294.9166895695L302.8304705003734,295.55764607505L305.12696041822255,295.7480424211167L307.5,296.0904740762667L309.87303958177745,296.2798446680667L312.1695294996266,295.23060205073335L314.54256908140405,295.45963513218334L316.84224856858356,296.34664833626664L319.21528815036095,296.2866136445833L321.5883277321384,296.1533544840833L323.80826798605926,296.7497899781333L326.17811799850637,296.04732157665L328.4746079163555,296.67681682398336L330.8476474981329,297.0876014191333L333.1441374159821,296.85375651323335L335.5171769977595,297.3993113285667L337.89021657953697,297.13234524185L340.18670649738607,296.2681422955L342.5597460791636,295.84580838325L344.859425566343,296.4311206281333L347.23246514812047,296.61726183598336L349.605504729898,296.31429821935L351.7488953198905,296.67336519661666L354.1187453323376,296.35370315436666L356.4152352501867,297.2848016774L358.78827483196415,297.4405582717L361.0847647498133,297.5302007594L363.45780433159075,297.95979697223333L365.8308439133682,297.0788568218667L368.1273338312173,297.5549016448667L370.50037341299475,296.7713373712833L372.80005290017425,297.2464158510833L375.1730924819517,297.3430277674833L377.54613206372915,297.56927564415L379.68952265372167,297.35744428273335L382.05937266616877,297.2802961845333L384.3558625840179,296.4812737789L386.7289021657954,297.34209576368335L389.0253920836445,297.4395675492167L391.398431665422,297.0644356377667L393.77147124719943,297.25241906583335L396.06796116504853,297.06701298968335L398.441000746826,296.91168141248335L400.7406802340055,297.2884806314167L403.11371981578293,297.49495492318334L405.4867593975604,297.27220594846665L407.6301499875529,297.0573285894L410,296.32569077015" data-legend="matlab" style="stroke: rgb(148, 103, 189); fill: none;"></path><path class="line" d="M2.3730395817774457,299.637260592L4.669529499626587,299.65193177863335L7.042569081404033,299.4673058996L9.342248568583521,299.4399171077333L11.715288150360966,299.68061322261667L14.088327732138412,299.51996927805L16.231718322130945,299.3401299944L18.601568334578044,299.3665874901167L20.898058252427184,299.08435689153333L23.27109783420463,298.9264242771333L25.56758775205377,299.27101557945L27.94062733383122,299.33005575998334L30.313666915608668,299.69366499205L32.6101568334578,299.30426070743334L34.98319641523525,299.64968515453336L37.28287590241474,299.42025883215L39.655915484192185,299.58834800311666L42.02895506596963,299.5121658336L44.17234565596216,299.3883792049L46.54219566840926,299.5635064534L48.83868558625841,299.41779226828334L51.21172516803585,299.5777383667L53.50821508588499,299.36440560871665L55.88125466766244,299.39304695706664L58.25429424943988,299.4510591813167L60.550784167289024,299.3681783001L62.923823749066464,299.5177329591L65.22350323624596,299.3481850575167L67.5965428180234,299.32787229575L69.96958239980084,299.4127462415833L72.11297298979338,299.43462803513336L74.48282300224048,299.03529081598333L76.77931292008962,299.46499745875L79.15235250186707,299.42446432865L81.4488424197162,299.6503915614667L83.82188200149365,299.39062119138333L86.1949215832711,299.32716292505L88.49141150112024,299.30652559416666L90.86445108289769,299.4624795358333L93.16413057007718,299.0807489477L95.53717015185462,299.1071711437833L97.91020973363206,299.2569656096667L100.1301499875529,299.2112913039333L102.5,299.11703218938334L104.79648991784914,299.21562182515L107.16952949962658,299.30852739385L109.46601941747572,299.19692374555L111.83905899925318,299.217822275L114.2120985810306,299.3786441254L116.50858849887976,299.2164290207833L118.88162808065721,299.13865598601666L121.18130756783668,299.1326285320667L123.55434714961414,299.09486843646664L125.92738673139159,299.14475372196665L128.0707773213841,299.09137131401667L130.4406273338312,299.07956296866666L132.73711725168036,299.1631984772333L135.1101568334578,299.07712087171666L137.40664675130697,299.20145563231665L139.77968633308438,299.21115738988334L142.15272591486183,299.0779469221667L144.449215832711,298.5976491500333L146.8222554144884,298.86717805486666L149.1219349016679,299.06707715273336L151.49497448344536,299.01393286216666L153.8680140652228,299.1425784808667L156.01140465521533,298.8763808794L158.38125466766243,299.09237543501666L160.6777445855116,298.96965638041667L163.050784167289,298.4896541308L165.34727408513817,298.90941093018336L167.72031366691562,299.1878243562333L170.09335324869303,299.14003820255L172.3898431665422,298.94147215005L174.76288274831964,298.70133792396666L177.06256223549912,298.76890380603334L179.4356018172766,299.1206418708L181.808641399054,298.82405934715L183.95203198904653,298.7803196623167L186.32188200149363,298.85912593128336L188.6183719193428,298.9062502824833L190.99141150112024,298.66867526935L193.2879014189694,298.71153945266667L195.66094100074682,298.6398485513L198.03398058252426,298.85719898528333L200.33047050037342,299.05392620625L202.70351008215084,298.96379694943334L205.00318956933035,299.2502054631833L207.37622915110782,298.98868439903333L209.74926873288524,299.00981620048333L211.96920898680605,298.8662074807L214.33905899925315,299.2736830592167L216.6355489171023,299.1744560730833L219.0085884988798,298.78639890795L221.3050784167289,298.7447006396333L223.67811799850637,298.92615262705L226.05115758028379,299.1072549758333L228.34764749813294,298.89589117905L230.72068707991036,298.92417963895L233.0203665670899,298.98360703345L235.3934061488673,299.11424522265L237.76644573064476,299.1831290195L239.90983632063728,298.93945011741664L242.27968633308438,298.91632931528335L244.57617625093354,299.05273300063334L246.94921583271096,298.706011474L249.24570575056012,298.88551734473333L251.6187453323376,298.94664920571665L253.99178491411502,299.03412348265L256.28827483196415,299.1983610938L258.6613144137416,299.0135944617833L260.9609939009211,298.92262351601664L263.33403348269854,299.1072291333333L265.707073064476,299.0096460475L267.8504636544685,298.9672300134667L270.2203136669156,299.1291907694333L272.5168035847648,299.0145207353L274.8898431665422,298.77673436131664L277.1863330843913,299.0385326529167L279.55937266616877,299.14671581585L281.9324122479463,299.22757148475L284.2289021657954,299.2629189253L286.6019417475728,299.2548889446L288.9016212347523,299.0667587123833L291.2746608165297,298.9814003707833L293.6477003983072,298.9377964356167L295.79109098829974,299.00278799483334L298.16094100074685,299.0304376472333L300.45743091859595,299.11740324395L302.8304705003734,299.01695809505L305.12696041822255,299.03771486373336L307.5,299.0627004094667L309.87303958177745,298.9988950768L312.1695294996266,299.14792658448334L314.54256908140405,298.99861626976667L316.84224856858356,299.33806868811666L319.21528815036095,299.19524134713333L321.5883277321384,299.18651001175L323.80826798605926,299.28732936398336L326.17811799850637,299.27211749315L328.4746079163555,299.15114342786666L330.8476474981329,298.98997624973333L333.1441374159821,299.2286628871167L335.5171769977595,299.22774310193336L337.89021657953697,299.2146671616667L340.18670649738607,299.3106759654167L342.5597460791636,298.90219560878336L344.859425566343,298.9569824371L347.23246514812047,298.88044608806666L349.605504729898,299.1553600086L351.7488953198905,299.1174234195167L354.1187453323376,299.2831009591667L356.4152352501867,298.94408954121667L358.78827483196415,299.0075634114833L361.0847647498133,298.7786707052L363.45780433159075,299.1591055088333L365.8308439133682,299.04501088408335L368.1273338312173,299.10958846026665L370.50037341299475,298.9707756685833L372.80005290017425,299.31160396278335L375.1730924819517,299.07216842675L377.54613206372915,299.23395353635L379.68952265372167,299.33597317875L382.05937266616877,299.22503063323336L384.3558625840179,299.3158032348L386.7289021657954,299.22117224703334L389.0253920836445,299.41297402348334L391.398431665422,299.26610890945L393.77147124719943,299.2566930806167L396.06796116504853,299.46207225138335L398.441000746826,299.3530399797L400.7406802340055,299.6245588566667L403.11371981578293,299.3282560688L405.4867593975604,299.0700702097L407.6301499875529,299.2420391821167L410,299.09424005031667" data-legend="fortran" style="stroke: rgb(140, 86, 75); fill: none;"></path></g></g><g transform="translate(20, 150)"><text transform="rotate(-90)" x="-50" y="0" dy="1em" class="axis-label y-axis-label" style="text-anchor: middle; font-weight: bold;">% of Stack Overflow questions that month</text></g><g class="legend" transform="translate(530, 30)" style="font-size: 12px;"><text class="legend-title" style="font-weight: bold;">Tag</text><g class="legend-items" transform="translate(0,20)"><text y="0em" x="1em">python</text><text y="1em" x="1em">c++</text><text y="2em" x="1em">r</text><text y="3em" x="1em">matlab</text><text y="4em" x="1em">julia</text><text y="5em" x="1em">fortran</text><circle cy="-0.25em" cx="0" r="0.4em" style="fill: rgb(255, 127, 14);"></circle><circle cy="0.75em" cx="0" r="0.4em" style="fill: rgb(31, 119, 180);"></circle><circle cy="1.75em" cx="0" r="0.4em" style="fill: rgb(44, 160, 44);"></circle><circle cy="2.75em" cx="0" r="0.4em" style="fill: rgb(148, 103, 189);"></circle><circle cy="3.75em" cx="0" r="0.4em" style="fill: rgb(214, 39, 40);"></circle><circle cy="4.75em" cx="0" r="0.4em" style="fill: rgb(140, 86, 75);"></circle></g><rect class="legend-box"></rect></g></svg>
        